# This file uses centimeters as units for non-parametric coordinates.

mtllib House2.mtl
g default
v -1.500000 -0.114215 1.500000
v 1.500000 -0.114215 1.500000
v -1.500000 2.885785 1.500000
v 1.500000 2.885785 1.500000
v -1.500000 2.885785 -1.500000
v 1.500000 2.885785 -1.500000
v -1.500000 -0.114215 -1.500000
v 1.500000 -0.114215 -1.500000
vt 0.375000 0.000000
vt 0.625000 0.000000
vt 0.375000 0.250000
vt 0.625000 0.250000
vt 0.375000 0.500000
vt 0.625000 0.500000
vt 0.375000 0.750000
vt 0.625000 0.750000
vt 0.375000 1.000000
vt 0.625000 1.000000
vt 0.875000 0.000000
vt 0.875000 0.250000
vt 0.125000 0.000000
vt 0.125000 0.250000
vn 0.000000 0.000000 1.000000
vn 0.000000 0.000000 1.000000
vn 0.000000 0.000000 1.000000
vn 0.000000 0.000000 1.000000
vn 0.000000 1.000000 0.000000
vn 0.000000 1.000000 0.000000
vn 0.000000 1.000000 0.000000
vn 0.000000 1.000000 0.000000
vn 0.000000 0.000000 -1.000000
vn 0.000000 0.000000 -1.000000
vn 0.000000 0.000000 -1.000000
vn 0.000000 0.000000 -1.000000
vn 0.000000 -1.000000 0.000000
vn 0.000000 -1.000000 0.000000
vn 0.000000 -1.000000 0.000000
vn 0.000000 -1.000000 0.000000
vn 1.000000 0.000000 0.000000
vn 1.000000 0.000000 0.000000
vn 1.000000 0.000000 0.000000
vn 1.000000 0.000000 0.000000
vn -1.000000 0.000000 0.000000
vn -1.000000 0.000000 0.000000
vn -1.000000 0.000000 0.000000
vn -1.000000 0.000000 0.000000
s off
g pCube1
usemtl initialShadingGroup
f 1/1/1 2/2/2 4/4/3 3/3/4
f 3/3/5 4/4/6 6/6/7 5/5/8
f 5/5/9 6/6/10 8/8/11 7/7/12
f 7/7/13 8/8/14 2/10/15 1/9/16
f 2/2/17 8/11/18 6/12/19 4/4/20
f 7/13/21 1/1/22 3/3/23 5/14/24
g default
v -2.000000 2.873070 1.500000
v 2.000000 2.873070 1.500000
v -2.000000 3.216637 1.500000
v 2.000000 3.218809 1.500000
v -2.000000 3.216637 -1.500000
v 2.000000 3.218809 -1.500000
v -2.000000 2.873070 -1.500000
v 2.000000 2.873070 -1.500000
v -0.036627 4.733989 1.500000
v 0.037009 4.733989 -1.500000
vt 0.375000 0.000000
vt 0.625000 0.000000
vt 0.375000 0.250000
vt 0.625000 0.250000
vt 0.375000 0.500000
vt 0.625000 0.500000
vt 0.375000 0.750000
vt 0.625000 0.750000
vt 0.375000 1.000000
vt 0.625000 1.000000
vt 0.875000 0.000000
vt 0.875000 0.250000
vt 0.125000 0.000000
vt 0.125000 0.250000
vt 0.497700 0.250000
vt 0.502302 0.500000
vn 0.000000 0.000000 1.000000
vn 0.000000 0.000000 1.000000
vn 0.000000 0.000000 1.000000
vn 0.000000 0.000000 1.000000
vn 0.000000 0.000000 1.000000
vn -0.604361 0.796676 -0.007417
vn -0.006790 0.999977 -0.000083
vn 0.005704 0.999984 0.000070
vn -0.604361 0.796676 -0.007417
vn 0.000000 0.000000 -1.000000
vn 0.000000 0.000000 -1.000000
vn 0.000000 0.000000 -1.000000
vn 0.000000 0.000000 -1.000000
vn 0.000000 0.000000 -1.000000
vn 0.000000 -1.000000 0.000000
vn 0.000000 -1.000000 0.000000
vn 0.000000 -1.000000 0.000000
vn 0.000000 -1.000000 0.000000
vn 1.000000 0.000000 0.000000
vn 1.000000 0.000000 0.000000
vn 1.000000 0.000000 0.000000
vn 1.000000 0.000000 0.000000
vn -1.000000 0.000000 0.000000
vn -1.000000 0.000000 0.000000
vn -1.000000 0.000000 0.000000
vn -1.000000 0.000000 0.000000
vn 0.603885 0.797037 0.007411
vn 0.603885 0.797037 0.007411
s off
g pCube2
usemtl initialShadingGroup
f 9/15/25 10/16/26 12/18/27 17/29/28 11/17/29
s 1
f 11/17/30 17/29/31 18/30/32 13/19/33
s off
f 13/19/34 18/30/35 14/20/36 16/22/37 15/21/38
f 15/21/39 16/22/40 10/24/41 9/23/42
f 10/16/43 16/25/44 14/26/45 12/18/46
f 15/27/47 9/15/48 11/17/49 13/28/50
s 1
f 18/30/32 17/29/31 12/18/51 14/20/52
g default
v -0.516784 -0.109996 1.859804
v 0.483216 -0.109996 1.859804
v -0.516784 1.890004 1.859804
v 0.483216 1.890004 1.859804
v -0.516784 1.890004 1.562333
v 0.483216 1.890004 1.562333
v -0.516784 -0.109996 1.562333
v 0.483216 -0.109996 1.562333
vt 0.375000 0.000000
vt 0.625000 0.000000
vt 0.375000 0.250000
vt 0.625000 0.250000
vt 0.375000 0.500000
vt 0.625000 0.500000
vt 0.375000 0.750000
vt 0.625000 0.750000
vt 0.375000 1.000000
vt 0.625000 1.000000
vt 0.875000 0.000000
vt 0.875000 0.250000
vt 0.125000 0.000000
vt 0.125000 0.250000
vn 0.000000 0.000000 1.000000
vn 0.000000 0.000000 1.000000
vn 0.000000 0.000000 1.000000
vn 0.000000 0.000000 1.000000
vn 0.000000 1.000000 0.000000
vn 0.000000 1.000000 0.000000
vn 0.000000 1.000000 0.000000
vn 0.000000 1.000000 0.000000
vn 0.000000 0.000000 -1.000000
vn 0.000000 0.000000 -1.000000
vn 0.000000 0.000000 -1.000000
vn 0.000000 0.000000 -1.000000
vn 0.000000 -1.000000 0.000000
vn 0.000000 -1.000000 0.000000
vn 0.000000 -1.000000 0.000000
vn 0.000000 -1.000000 0.000000
vn 1.000000 0.000000 0.000000
vn 1.000000 0.000000 0.000000
vn 1.000000 0.000000 0.000000
vn 1.000000 0.000000 0.000000
vn -1.000000 0.000000 0.000000
vn -1.000000 0.000000 0.000000
vn -1.000000 0.000000 0.000000
vn -1.000000 0.000000 0.000000
s off
g pCube3
usemtl initialShadingGroup
f 19/31/53 20/32/54 22/34/55 21/33/56
f 21/33/57 22/34/58 24/36/59 23/35/60
f 23/35/61 24/36/62 26/38/63 25/37/64
f 25/37/65 26/38/66 20/40/67 19/39/68
f 20/32/69 26/41/70 24/42/71 22/34/72
f 25/43/73 19/31/74 21/33/75 23/44/76
