# This file uses centimeters as units for non-parametric coordinates.

mtllib House1.mtl
g default
v -1.500000 -0.104149 1.500000
v 1.500000 -0.104149 1.500000
v -1.500000 3.895851 1.500000
v 1.500000 3.895851 1.500000
v -1.500000 3.895851 -1.500000
v 1.500000 3.895851 -1.500000
v -1.500000 -0.104149 -1.500000
v 1.500000 -0.104149 -1.500000
v -1.500000 5.811268 1.500000
v 1.500000 4.298474 1.500000
v 1.500000 4.298474 -1.500000
v -1.500000 5.811268 -1.500000
v -1.967327 3.895851 1.500000
v -1.967327 3.895851 -1.500000
v -1.967327 6.070362 1.500000
v -1.967327 6.070362 -1.500000
v 1.941450 3.895851 1.500000
v 1.941450 3.895851 -1.500000
v 1.941450 4.146136 -1.500000
v 1.941450 4.146136 1.500000
v -1.500000 1.895851 1.500000
v 1.500000 1.895851 1.500000
v -0.041839 -0.104149 1.500000
v -0.041839 1.895851 1.500000
v 0.992602 -0.104149 1.500000
v 0.992602 1.895851 1.500000
vt 0.375000 0.000000
vt 0.625000 0.000000
vt 0.375000 0.250000
vt 0.625000 0.250000
vt 0.375000 0.500000
vt 0.625000 0.500000
vt 0.375000 0.750000
vt 0.625000 0.750000
vt 0.375000 1.000000
vt 0.625000 1.000000
vt 0.875000 0.000000
vt 0.875000 0.250000
vt 0.125000 0.000000
vt 0.125000 0.250000
vt 0.375000 0.250000
vt 0.625000 0.250000
vt 0.625000 0.500000
vt 0.375000 0.500000
vt 0.375000 0.500000
vt 0.375000 0.250000
vt 0.375000 0.250000
vt 0.375000 0.500000
vt 0.625000 0.250000
vt 0.625000 0.500000
vt 0.625000 0.500000
vt 0.625000 0.250000
vt 0.375000 0.125000
vt 0.625000 0.125000
vt 0.500000 0.000000
vt 0.500000 1.000000
vt 0.500000 0.125000
vt 0.562500 0.000000
vt 0.562500 1.000000
vt 0.562500 0.125000
vn 0.000000 0.000000 1.000000
vn 0.000000 0.000000 1.000000
vn 0.000000 0.000000 1.000000
vn 0.000000 0.000000 1.000000
vn 0.000000 0.000000 1.000000
vn 0.000000 0.000000 1.000000
vn 0.455050 0.890466 0.000000
vn 0.435543 0.900168 0.000000
vn 0.435543 0.900168 0.000000
vn 0.455050 0.890466 0.000000
vn -0.000000 0.000000 -1.000000
vn 0.000000 0.000000 -1.000000
vn 0.000000 0.000000 -1.000000
vn 0.000000 0.000000 -1.000000
vn 0.000000 -1.000000 0.000000
vn 0.000000 -1.000000 0.000000
vn 0.000000 -1.000000 0.000000
vn 0.000000 -1.000000 0.000000
vn 0.000000 -1.000000 0.000000
vn 0.000000 -1.000000 0.000000
vn 1.000000 0.000000 0.000000
vn 1.000000 0.000000 0.000000
vn 1.000000 0.000000 0.000000
vn 1.000000 0.000000 0.000000
vn 1.000000 0.000000 0.000000
vn -1.000000 0.000000 0.000000
vn -1.000000 0.000000 0.000000
vn -1.000000 0.000000 0.000000
vn -1.000000 0.000000 0.000000
vn -1.000000 0.000000 0.000000
vn 0.000000 0.000000 1.000000
vn 0.000000 0.000000 1.000000
vn 1.000000 0.000000 0.000000
vn 1.000000 0.000000 0.000000
vn 1.000000 0.000000 0.000000
vn 1.000000 0.000000 0.000000
vn -0.000000 0.000000 -1.000000
vn 0.000000 0.000000 -1.000000
vn -1.000000 0.000000 0.000000
vn -1.000000 0.000000 0.000000
vn -1.000000 0.000000 0.000000
vn -1.000000 0.000000 0.000000
vn 0.000000 -1.000000 0.000000
vn 0.000000 -1.000000 0.000000
vn 0.000000 -1.000000 0.000000
vn 0.000000 -1.000000 0.000000
vn 0.000000 0.000000 1.000000
vn 0.000000 0.000000 1.000000
vn 0.484882 0.874580 0.000000
vn 0.484882 0.874580 0.000000
vn -0.000000 0.000000 -1.000000
vn -0.000000 0.000000 -1.000000
vn 0.000000 -1.000000 0.000000
vn 0.000000 -1.000000 0.000000
vn 0.000000 -1.000000 0.000000
vn 0.000000 -1.000000 0.000000
vn 0.000000 0.000000 -1.000000
vn 0.000000 0.000000 -1.000000
vn 0.326208 0.945298 0.000000
vn 0.326208 0.945298 0.000000
vn 0.000000 0.000000 1.000000
vn 0.000000 0.000000 1.000000
vn 0.000000 0.000000 1.000000
vn 0.000000 0.000000 1.000000
vn 0.000000 0.000000 1.000000
vn 0.000000 0.000000 1.000000
vn 0.000000 0.000000 1.000000
vn 0.000000 0.000000 1.000000
vn 0.000000 0.000000 1.000000
vn 0.000000 0.000000 1.000000
vn 0.000000 0.000000 1.000000
vn 0.000000 0.000000 1.000000
vn 0.000000 0.000000 1.000000
vn 0.000000 0.000000 1.000000
s 1
g pCube1
usemtl blinn1SG
f 21/27/1 24/31/2 26/34/3 22/28/4 4/4/5 3/3/6
s 2
usemtl blinn3SG
f 9/15/7 10/16/8 11/17/9 12/18/10
s 3
usemtl blinn1SG
f 5/5/11 6/6/12 8/8/13 7/7/14
s off
f 7/7/15 8/8/16 2/10/17 25/33/18 23/30/19 1/9/20
f 2/2/21 8/11/22 6/12/23 4/4/24 22/28/25
f 7/13/26 1/1/27 21/27/28 3/3/29 5/14/30
s 1
usemtl blinn3SG
f 3/3/6 4/4/5 10/16/31 9/15/32
s off
f 17/23/33 18/24/34 19/25/35 20/26/36
s 3
f 6/6/12 5/5/11 12/18/37 11/17/38
s off
f 14/19/39 13/20/40 15/21/41 16/22/42
f 5/5/43 3/3/44 13/20/45 14/19/46
s 1
f 3/3/6 9/15/32 15/21/47 13/20/48
s 2
f 9/15/7 12/18/10 16/22/49 15/21/50
s 3
f 12/18/37 5/5/11 14/19/51 16/22/52
s off
f 4/4/53 6/6/54 18/24/55 17/23/56
s 3
f 6/6/12 11/17/38 19/25/57 18/24/58
s 2
f 11/17/9 10/16/8 20/26/59 19/25/60
s 1
f 10/16/31 4/4/5 17/23/61 20/26/62
s off
usemtl blinn1SG
f 1/1/63 23/29/64 24/31/65 21/27/66
usemtl blinn2SG
f 24/31/67 23/29/68 25/32/69 26/34/70
usemtl blinn1SG
f 26/34/71 25/32/72 2/2/73 22/28/74
